<svg xmlns="http://www.w3.org/2000/svg" viewBox="0 0 512 512" width="512" height="512">
  <defs>
    <linearGradient id="logoGradient" x1="0%" y1="0%" x2="100%" y2="100%">
      <stop offset="0%" style="stop-color:#4A90E2;stop-opacity:1" />
      <stop offset="50%" style="stop-color:#7B68EE;stop-opacity:1" />
      <stop offset="100%" style="stop-color:#E85D75;stop-opacity:1" />
    </linearGradient>
  </defs>
  
  <!-- Circle background with gradient -->
  <circle cx="256" cy="256" r="256" fill="url(#logoGradient)"/>
  
  <!-- Hand gesture icon (simplified peace/ok sign) -->
  <g fill="none" stroke="white" stroke-width="16" stroke-linecap="round" stroke-linejoin="round">
    <!-- Wrist/base -->
    <rect x="150" y="340" width="70" height="50" rx="8" fill="none" stroke="white" stroke-width="12"/>
    
    <!-- Thumb -->
    <path d="M 165 340 Q 160 310 165 280 Q 170 250 185 230 Q 195 215 205 215 Q 215 215 220 225 Q 225 235 220 250 L 210 290 Q 205 310 200 330" fill="none" stroke="white" stroke-width="12"/>
    
    <!-- Index finger (up) -->
    <path d="M 200 330 L 205 280 Q 207 240 210 210 Q 212 190 215 180 Q 218 165 230 165 Q 242 165 245 180 Q 248 195 245 215 L 240 260 L 235 300 L 230 330" fill="none" stroke="white" stroke-width="12"/>
    
    <!-- Middle finger (up) -->
    <path d="M 230 330 L 235 280 Q 237 230 240 195 Q 242 170 245 155 Q 248 140 260 140 Q 272 140 275 155 Q 278 170 275 195 L 270 250 L 265 300 L 260 330" fill="none" stroke="white" stroke-width="12"/>
    
    <!-- Palm base -->
    <ellipse cx="215" cy="340" rx="45" ry="30" fill="none" stroke="white" stroke-width="12"/>
  </g>
  
  <!-- ASL/Sign Language symbol -->
  <g transform="translate(280, 140)">
    <!-- Container circle for ASL -->
    <circle cx="40" cy="100" r="55" fill="none" stroke="white" stroke-width="12"/>
    
    <!-- Letter shapes inside -->
    <g fill="white" stroke="none">
      <!-- Stylized hand/letter representation -->
      <path d="M 25 80 Q 30 75 35 75 L 45 75 Q 50 75 55 80 L 55 105 Q 55 115 50 120 L 35 120 Q 30 120 25 115 Z" fill="none" stroke="white" stroke-width="8"/>
      <circle cx="40" cy="95" r="12" fill="none" stroke="white" stroke-width="6"/>
    </g>
  </g>
  
  <!-- Decorative flask/science element -->
  <g transform="translate(280, 80)">
    <!-- Flask top -->
    <rect x="35" y="15" width="30" height="12" rx="4" fill="white"/>
    <!-- Flask neck -->
    <rect x="43" y="27" width="14" height="25" fill="white"/>
    <!-- Flask body -->
    <path d="M 43 52 L 30 90 Q 25 100 25 110 L 25 125 Q 25 135 35 135 L 65 135 Q 75 135 75 125 L 75 110 Q 75 100 70 90 L 57 52 Z" fill="white"/>
    <!-- Liquid in flask -->
    <ellipse cx="50" cy="115" rx="18" ry="8" fill="url(#logoGradient)" opacity="0.6"/>
  </g>
</svg>
